<?xml version="1.0" encoding="iso-8859-1"?>
<!-- Generator: Adobe Illustrator 19.0.0, SVG Export Plug-In . SVG Version: 6.00 Build 0)  -->
<svg version="1.1" id="Capa_1" xmlns="http://www.w3.org/2000/svg" xmlns:xlink="http://www.w3.org/1999/xlink" x="0px" y="0px"
	 viewBox="0 0 511.879 511.879" style="enable-background:new 0 0 511.879 511.879;" xml:space="preserve">
<g>
	<path style="fill:#AAB2BD;" d="M459.517,316.575c0,22.159-17.918,39.991-39.991,39.991c-22.072,0-39.99-17.832-39.99-39.991
		c0-22.073,17.918-39.99,39.99-39.99C441.599,276.585,459.517,294.501,459.517,316.575z"/>
	<path style="fill:#AAB2BD;" d="M99.602,356.566c-22.073,0-39.99-17.832-39.99-39.991c0-22.073,17.917-39.99,39.99-39.99
		s39.99,17.917,39.99,39.99C139.592,338.734,121.675,356.566,99.602,356.566z"/>
</g>
<g style="opacity:0.5;">
	<path style="fill:#FFFFFF;" d="M67.61,316.575c0-20.706,15.82-37.546,35.991-39.584c-1.335-0.133-2.628-0.406-3.999-0.406
		c-22.073,0-39.99,17.917-39.99,39.99c0,22.159,17.917,39.991,39.99,39.991c1.371,0,2.664-0.266,3.999-0.398
		C83.43,354.136,67.61,337.359,67.61,316.575z"/>
</g>
<g style="opacity:0.2;">
	<path d="M131.594,316.575c0,20.706-15.82,37.554-35.991,39.593c1.336,0.133,2.628,0.398,3.999,0.398
		c22.073,0,39.99-17.91,39.99-39.991c0-22.15-17.917-39.99-39.99-39.99c-1.371,0-2.663,0.273-3.999,0.406
		C115.774,279.013,131.594,295.798,131.594,316.575z"/>
</g>
<g style="opacity:0.5;">
	<path style="fill:#FFFFFF;" d="M387.534,316.575c0-20.706,15.824-37.546,35.992-39.584c-1.336-0.133-2.625-0.406-4-0.406
		c-22.072,0-39.99,17.917-39.99,39.99c0,22.159,17.918,39.991,39.99,39.991c1.375,0,2.664-0.266,4-0.398
		C403.358,354.136,387.534,337.359,387.534,316.575z"/>
</g>
<g style="opacity:0.2;">
	<path d="M451.519,316.575c0,20.706-15.816,37.554-35.991,39.593c1.335,0.133,2.632,0.398,3.998,0.398
		c22.073,0,39.991-17.91,39.991-39.991c0-22.15-17.918-39.99-39.991-39.99c-1.366,0-2.663,0.273-3.998,0.406
		C435.703,279.013,451.519,295.798,451.519,316.575z"/>
</g>
<polygon style="fill:#ED5565;" points="35.617,212.6 35.617,236.594 11.623,236.594 15.622,212.6 19.621,212.6 "/>
<g style="opacity:0.3;">
	<polygon style="fill:#FFFFFF;" points="19.621,212.6 15.622,212.6 11.623,236.594 19.621,236.594 23.62,212.6 	"/>
</g>
<path style="fill:#E6E9ED;" d="M483.511,236.594l10.638,15.996c-42.466,0-50.628-7.998-50.628-7.998L483.511,236.594z"/>
<g style="opacity:0.2;">
	<path d="M486.081,252.481c2.547,0.07,5.218,0.109,8.068,0.109l-10.638-15.996l-7.061,1.413L486.081,252.481z"/>
</g>
<g>
	<path style="fill:#5D9CEC;" d="M203.5,156.136c10.634-0.32,21.433-0.164,32.07,0.477c57.83,3.601,127.415,50.551,135.249,55.987
		c-8.795,0-95.898,0-159.243,0v-7.998l-7.998-39.991L203.5,156.136z"/>
	<path style="fill:#5D9CEC;" d="M211.576,204.602v7.998c-31.032,0-56.307,0-63.985,0c-24.155,0-55.667-15.997-55.827-31.993v-2.155
		v-7.764v-0.078c17.996-4.077,63.426-13.356,111.735-14.473l0.078,8.475L211.576,204.602z"/>
</g>
<path style="fill:#A0D468;" d="M19.621,204.602l39.991-15.997l-7.998-15.996h31.992c0,0,2.96-0.797,8.158-2v0.078v7.764v2.155
	c0.16,15.996,31.672,31.993,55.827,31.993c7.678,0,32.953,0,63.985,0c63.345,0,150.448,0,159.243,0
	c0.484,0.32,0.719,0.484,0.719,0.484c51.027,0,111.974,23.511,111.974,23.511l-39.99,7.998c0,0,8.162,7.998,50.628,7.998
	l5.358,7.998l3.999,7.998v15.996v7.998v7.998l3.999,15.996h-39.99h-7.998c0-22.073-17.918-39.99-39.991-39.99
	c-22.072,0-39.99,17.917-39.99,39.99h-7.998H147.591h-7.999c0-22.073-17.917-39.99-39.99-39.99s-39.99,17.917-39.99,39.99h-7.998
	l-47.989-7.998v-23.994l7.998-7.998v-7.998v-23.994v-7.998h23.995v-23.995H19.621V204.602z"/>
<g style="opacity:0.5;">
	<polygon style="fill:#FFFFFF;" points="27.619,212.6 27.994,207.71 71.234,191.464 59.924,172.609 51.614,172.609 59.612,188.605 
		19.621,204.602 19.621,212.6 	"/>
	<path style="fill:#FFFFFF;" d="M59.612,315.951l-47.989-7.999v-22.01l7.999-9.982v-7.998v-23.994v-7.373h-7.999v7.998v23.994v7.998
		l-7.998,7.998v23.994l47.989,7.998h7.998c0-0.211,0.059-0.414,0.062-0.624L59.612,315.951L59.612,315.951z"/>
</g>
<g style="opacity:0.3;">
	<path style="fill:#FFFFFF;" d="M241.682,212.6c5.486,0,11.024,0,16.562,0l13.176-49.153c-5.17-1.53-10.345-2.858-15.512-3.944
		L241.682,212.6z"/>
</g>
<g style="opacity:0.3;">
	<path style="fill:#FFFFFF;" d="M262.384,212.6c1.382,0,2.765,0,4.147,0l12.527-46.778c-1.265-0.422-2.546-0.781-3.818-1.188
		L262.384,212.6z"/>
</g>
<g style="opacity:0.3;">
	<path style="fill:#FFFFFF;" d="M155.98,159.62l-14.114,52.675c1.937,0.18,3.858,0.305,5.725,0.305c2.195,0,5.963,0,10.755,0
		l14.668-54.729C167.184,158.378,161.498,158.972,155.98,159.62z"/>
</g>
<g style="opacity:0.3;">
	<path style="fill:#FFFFFF;" d="M162.486,212.6c1.289,0,2.733,0,4.144,0l14.84-55.393c-1.406,0.094-2.823,0.188-4.218,0.297
		L162.486,212.6z"/>
</g>
<g style="opacity:0.2;">
	<path d="M483.511,236.594c0,0-60.946-23.511-111.974-23.511c0,0-0.234-0.164-0.719-0.484c-1.226,0-4.015,0-7.998,0
		c0.484,0.32,1.555,3.195,1.555,3.195c55.15,5.498,89.143,17.16,104.46,23.736L483.511,236.594z"/>
	<path d="M503.506,300.579v-7.998v-7.998v-15.996l-3.999-7.998l-5.358-7.998c-7.998,0,0,0-7.998,0l5.358,7.998l3.999,7.998v15.996
		v7.998v7.998l3.999,15.996h7.998L503.506,300.579z"/>
</g>
<g>
	<path style="fill:#3A3847;" d="M11.998,272.265c-2.21,0-3.999-1.789-3.999-3.999v-23.994c0-2.211,1.789-3.999,3.999-3.999
		c2.211,0,3.999,1.788,3.999,3.999v23.994C15.997,270.476,14.209,272.265,11.998,272.265z"/>
	<path style="fill:#3A3847;" d="M503.889,272.265c-1.469,0-2.882-0.805-3.585-2.211l-3.999-7.998l-15.027-22.486
		c-8.654-3.21-63.524-22.862-109.365-22.862c-0.82,0-1.625-0.25-2.304-0.727c-0.734-0.523-74.451-51.98-133.914-55.698
		c-71.831-4.499-149.921,15.668-150.703,15.879c-0.328,0.086-0.671,0.125-1.011,0.125H58.46l5.104,10.209
		c0.5,1,0.559,2.163,0.16,3.21c-0.399,1.047-1.215,1.875-2.254,2.296l-39.99,15.997c-2.035,0.82-4.378-0.18-5.198-2.234
		c-0.82-2.046,0.18-4.374,2.23-5.194l35.952-14.379l-6.053-12.114c-0.621-1.234-0.555-2.71,0.176-3.89
		c0.73-1.18,2.015-1.898,3.401-1.898h31.489c6.947-1.75,82.711-20.378,152.718-15.988c58.518,3.663,127.337,49.77,136.983,56.417
		c50.887,0.367,109.653,22.862,112.153,23.83c0.765,0.297,1.429,0.82,1.882,1.507l15.996,23.995l4.249,8.428
		c0.992,1.976,0.188,4.381-1.788,5.365C505.1,272.132,504.491,272.265,503.889,272.265z"/>
	<path style="fill:#3A3847;" d="M507.873,320.199c-1.788,0-3.421-1.21-3.874-3.022l-3.991-15.941
		c-0.539-2.147,0.758-4.319,2.905-4.851c2.141-0.539,4.319,0.758,4.851,2.906l3.991,15.941c0.539,2.14-0.758,4.311-2.905,4.85
		C508.521,320.16,508.201,320.199,507.873,320.199z"/>
	<path style="fill:#3A3847;" d="M51.992,320.253c-0.218,0-0.437-0.016-0.66-0.055L3.343,312.2C1.414,311.88,0,310.217,0,308.256
		v-23.994c0-2.21,1.789-3.999,3.999-3.999c2.211,0,3.999,1.789,3.999,3.999v20.612l44.646,7.436
		c2.179,0.367,3.651,2.422,3.289,4.601C55.609,318.872,53.914,320.253,51.992,320.253z"/>
	<path style="fill:#3A3847;" d="M35.992,216.278H15.997c-2.21,0-3.999-1.789-3.999-3.999s1.789-3.999,3.999-3.999h19.996
		c2.21,0,3.999,1.789,3.999,3.999S38.203,216.278,35.992,216.278z"/>
	<path style="fill:#3A3847;" d="M35.992,240.273c-2.21,0-3.999-1.789-3.999-3.999v-23.995c0-2.21,1.789-3.999,3.999-3.999
		s3.999,1.789,3.999,3.999v23.995C39.991,238.484,38.203,240.273,35.992,240.273z"/>
	<path style="fill:#3A3847;" d="M35.992,240.273H11.998c-2.21,0-3.999-1.789-3.999-3.999c0-2.211,1.789-3.999,3.999-3.999h23.995
		c2.21,0,3.999,1.788,3.999,3.999C39.991,238.484,38.203,240.273,35.992,240.273z"/>
	<path style="fill:#3A3847;" d="M4,288.261c-1.023,0-2.046-0.391-2.827-1.172c-1.562-1.562-1.562-4.092,0-5.654l7.998-7.998
		c0.75-0.75,1.765-1.172,2.827-1.172h23.995c2.21,0,3.999,1.789,3.999,3.999s-1.789,3.999-3.999,3.999H13.654l-6.827,6.826
		C6.046,287.871,5.023,288.261,4,288.261z"/>
	<path style="fill:#3A3847;" d="M12.002,240.273c-0.219,0-0.437-0.016-0.66-0.055c-2.179-0.359-3.652-2.422-3.289-4.601
		l3.999-23.994c0.363-2.18,2.434-3.671,4.601-3.289c2.179,0.367,3.651,2.421,3.288,4.6l-3.999,23.995
		C15.618,238.89,13.923,240.273,12.002,240.273z"/>
	<path style="fill:#3A3847;" d="M371.913,320.253H147.965c-2.21,0-3.999-1.788-3.999-3.999c0-2.21,1.789-3.999,3.999-3.999h223.947
		c2.211,0,3.999,1.789,3.999,3.999C375.912,318.465,374.124,320.253,371.913,320.253z"/>
	<path style="fill:#3A3847;" d="M467.89,320.253c-2.202,0-3.991-1.788-3.999-3.991c0-2.21,1.789-3.999,3.999-4.007l39.982-0.055
		h0.008c2.203,0,3.991,1.789,3.999,3.999c0,2.203-1.788,3.999-3.999,3.999l-39.982,0.055H467.89z"/>
	<path style="fill:#3A3847;" d="M494.54,256.269c-42.014,0-51.894-7.615-53.448-9.146c-1.569-1.546-1.593-4.077-0.047-5.655
		c1.547-1.578,4.069-1.593,5.655-0.047l0,0c0.023,0,8.975,6.85,47.84,6.85c2.211,0,4,1.788,4,3.999
		C498.54,254.48,496.751,256.269,494.54,256.269z"/>
	<path style="fill:#3A3847;" d="M443.896,248.271c-1.867,0-3.538-1.312-3.921-3.21c-0.43-2.171,0.977-4.272,3.14-4.709l39.99-7.998
		c2.18-0.453,4.272,0.968,4.702,3.14c0.438,2.163-0.969,4.272-3.132,4.702l-39.991,7.998
		C444.419,248.248,444.153,248.271,443.896,248.271z"/>
	<path style="fill:#3A3847;" d="M503.881,296.259h-19.995c-2.21,0-3.999-1.789-3.999-3.999s1.789-3.999,3.999-3.999h19.995
		c2.211,0,3.999,1.789,3.999,3.999S506.092,296.259,503.881,296.259z"/>
	<path style="fill:#3A3847;" d="M503.881,288.261c-2.21,0-3.999-1.789-3.999-3.999v-15.996c0-2.21,1.789-3.999,3.999-3.999
		c2.211,0,3.999,1.789,3.999,3.999v15.996C507.88,286.472,506.092,288.261,503.881,288.261z"/>
	<path style="fill:#3A3847;" d="M503.881,304.257c-2.21,0-3.999-1.788-3.999-3.999v-7.998c0-2.21,1.789-3.999,3.999-3.999
		c2.211,0,3.999,1.789,3.999,3.999v7.998C507.88,302.469,506.092,304.257,503.881,304.257z"/>
	<path style="fill:#3A3847;" d="M420.143,320.253c-2.21,0-4.037-1.788-4.037-3.999c0-2.21,1.749-3.999,3.959-3.999h0.078
		c2.211,0,4,1.789,4,3.999C424.143,318.465,422.354,320.253,420.143,320.253z"/>
	<path style="fill:#3A3847;" d="M419.901,360.245c-24.252,0-43.989-19.729-43.989-43.99c0-24.252,19.737-43.989,43.989-43.989
		c24.26,0,43.99,19.737,43.99,43.989C463.891,340.515,444.161,360.245,419.901,360.245z M419.901,280.263
		c-19.847,0-35.991,16.145-35.991,35.991s16.145,35.991,35.991,35.991c19.848,0,35.992-16.145,35.992-35.991
		S439.749,280.263,419.901,280.263z"/>
	<path style="fill:#3A3847;" d="M419.901,304.257c-2.21,0-3.998-1.788-3.998-3.999v-7.998c0-2.21,1.788-3.999,3.998-3.999
		c2.211,0,4,1.789,4,3.999v7.998C423.901,302.469,422.112,304.257,419.901,304.257z"/>
	<path style="fill:#3A3847;" d="M419.901,344.248c-2.21,0-3.998-1.788-3.998-3.998v-7.998c0-2.211,1.788-4,3.998-4
		c2.211,0,4,1.789,4,4v7.998C423.901,342.46,422.112,344.248,419.901,344.248z"/>
	<path style="fill:#3A3847;" d="M403.905,320.253h-7.998c-2.21,0-3.999-1.788-3.999-3.999c0-2.21,1.789-3.999,3.999-3.999h7.998
		c2.211,0,4,1.789,4,3.999C407.905,318.465,406.116,320.253,403.905,320.253z"/>
	<path style="fill:#3A3847;" d="M443.896,320.253h-7.999c-2.21,0-3.998-1.788-3.998-3.999c0-2.21,1.788-3.999,3.998-3.999h7.999
		c2.21,0,3.999,1.789,3.999,3.999C447.895,318.465,446.106,320.253,443.896,320.253z"/>
	<path style="fill:#3A3847;" d="M408.591,308.944c-1.022,0-2.046-0.391-2.827-1.171l-5.655-5.655c-1.562-1.562-1.562-4.093,0-5.655
		s4.093-1.562,5.655,0l5.654,5.655c1.562,1.562,1.562,4.093,0,5.655C410.638,308.553,409.615,308.944,408.591,308.944z"/>
	<path style="fill:#3A3847;" d="M436.866,337.218c-1.022,0-2.046-0.391-2.827-1.172l-5.655-5.654c-1.562-1.562-1.562-4.093,0-5.655
		s4.094-1.562,5.655,0l5.655,5.655c1.562,1.562,1.562,4.093,0,5.654C438.913,336.828,437.889,337.218,436.866,337.218z"/>
	<path style="fill:#3A3847;" d="M402.936,337.218c-1.022,0-2.046-0.391-2.827-1.172c-1.562-1.562-1.562-4.092,0-5.654l5.655-5.655
		c1.562-1.562,4.093-1.562,5.654,0c1.562,1.562,1.562,4.093,0,5.655l-5.654,5.654C404.983,336.828,403.96,337.218,402.936,337.218z"
		/>
	<path style="fill:#3A3847;" d="M431.211,308.944c-1.023,0-2.047-0.391-2.828-1.171c-1.562-1.562-1.562-4.094,0-5.655l5.655-5.655
		c1.562-1.562,4.093-1.562,5.655,0s1.562,4.093,0,5.655l-5.655,5.655C433.257,308.553,432.235,308.944,431.211,308.944z"/>
	<path style="fill:#3A3847;" d="M100.215,320.253c-2.207,0-4.038-1.788-4.038-3.999c0-2.21,1.75-3.999,3.96-3.999h0.078
		c2.21,0,3.999,1.789,3.999,3.999C104.214,318.465,102.425,320.253,100.215,320.253z"/>
	<path style="fill:#3A3847;" d="M99.977,360.245c-24.256,0-43.99-19.729-43.99-43.99c0-24.252,19.734-43.989,43.99-43.989
		s43.989,19.737,43.989,43.989C143.966,340.515,124.233,360.245,99.977,360.245z M99.977,280.263
		c-19.847,0-35.991,16.145-35.991,35.991s16.145,35.991,35.991,35.991s35.991-16.145,35.991-35.991S119.824,280.263,99.977,280.263z
		"/>
	<path style="fill:#3A3847;" d="M99.977,304.257c-2.21,0-3.999-1.788-3.999-3.999v-7.998c0-2.21,1.789-3.999,3.999-3.999
		s3.999,1.789,3.999,3.999v7.998C103.976,302.469,102.188,304.257,99.977,304.257z"/>
	<path style="fill:#3A3847;" d="M99.977,344.248c-2.21,0-3.999-1.788-3.999-3.998v-7.998c0-2.211,1.789-4,3.999-4
		s3.999,1.789,3.999,4v7.998C103.976,342.46,102.188,344.248,99.977,344.248z"/>
	<path style="fill:#3A3847;" d="M83.981,320.253h-7.998c-2.211,0-3.999-1.788-3.999-3.999c0-2.21,1.788-3.999,3.999-3.999h7.998
		c2.21,0,3.999,1.789,3.999,3.999C87.98,318.465,86.191,320.253,83.981,320.253z"/>
	<path style="fill:#3A3847;" d="M123.971,320.253h-7.998c-2.21,0-3.999-1.788-3.999-3.999c0-2.21,1.789-3.999,3.999-3.999h7.998
		c2.21,0,3.999,1.789,3.999,3.999C127.97,318.465,126.182,320.253,123.971,320.253z"/>
	<path style="fill:#3A3847;" d="M88.668,308.944c-1.023,0-2.047-0.391-2.828-1.171l-5.655-5.655c-1.562-1.562-1.562-4.093,0-5.655
		s4.093-1.562,5.655,0l5.655,5.655c1.562,1.562,1.562,4.093,0,5.655C90.713,308.553,89.69,308.944,88.668,308.944z"/>
	<path style="fill:#3A3847;" d="M116.942,337.218c-1.023,0-2.047-0.391-2.828-1.172l-5.655-5.654c-1.562-1.562-1.562-4.093,0-5.655
		s4.093-1.562,5.655,0l5.655,5.655c1.562,1.562,1.562,4.093,0,5.654C118.988,336.828,117.965,337.218,116.942,337.218z"/>
	<path style="fill:#3A3847;" d="M83.012,337.218c-1.023,0-2.046-0.391-2.827-1.172c-1.562-1.562-1.562-4.092,0-5.654l5.655-5.655
		c1.562-1.562,4.093-1.562,5.655,0s1.562,4.093,0,5.655l-5.655,5.654C85.059,336.828,84.036,337.218,83.012,337.218z"/>
	<path style="fill:#3A3847;" d="M111.287,308.944c-1.023,0-2.046-0.391-2.827-1.171c-1.562-1.562-1.562-4.094,0-5.655l5.655-5.655
		c1.562-1.562,4.093-1.562,5.655,0s1.562,4.093,0,5.655l-5.655,5.655C113.334,308.553,112.31,308.944,111.287,308.944z"/>
	<path style="fill:#3A3847;" d="M347.919,216.278H147.965c-26.231,0-59.669-16.925-59.845-35.953c-0.02-2.21,1.753-4.015,3.96-4.038
		c0.016,0,0.027,0,0.039,0c2.19,0,3.979,1.766,3.999,3.96c0.117,12.575,28.704,28.033,51.847,28.033h199.953
		c2.211,0,3.999,1.789,3.999,3.999S350.129,216.278,347.919,216.278z"/>
	<path style="fill:#3A3847;" d="M211.947,208.28c-1.867,0-3.538-1.312-3.917-3.21l-7.998-39.99c-0.434-2.171,0.972-4.272,3.136-4.71
		c2.199-0.445,4.276,0.977,4.706,3.14l7.998,39.991c0.434,2.163-0.973,4.272-3.136,4.702
		C212.47,208.257,212.205,208.28,211.947,208.28z"/>
	<path style="fill:#3A3847;" d="M235.945,240.273h-14.996c-2.211,0-3.999-1.789-3.999-3.999c0-2.211,1.788-3.999,3.999-3.999h14.996
		c2.21,0,3.999,1.788,3.999,3.999C239.944,238.484,238.155,240.273,235.945,240.273z"/>
	<path style="fill:#3A3847;" d="M123.471,240.273h-14.996c-2.21,0-3.999-1.789-3.999-3.999c0-2.211,1.789-3.999,3.999-3.999h14.996
		c2.211,0,3.999,1.788,3.999,3.999C127.47,238.484,125.682,240.273,123.471,240.273z"/>
</g>
<g>
</g>
<g>
</g>
<g>
</g>
<g>
</g>
<g>
</g>
<g>
</g>
<g>
</g>
<g>
</g>
<g>
</g>
<g>
</g>
<g>
</g>
<g>
</g>
<g>
</g>
<g>
</g>
<g>
</g>
</svg>
